<svg xmlns="http://www.w3.org/2000/svg" viewBox="0 0 64 64" fill="none">
  <defs>
    <linearGradient id="bg" x1="10" y1="8" x2="54" y2="56" gradientUnits="userSpaceOnUse">
      <stop stop-color="#0EA5E9" />
      <stop offset="1" stop-color="#F59E0B" />
    </linearGradient>
    <linearGradient id="cut" x1="20" y1="18" x2="46" y2="46" gradientUnits="userSpaceOnUse">
      <stop stop-color="#F8FAFC" />
      <stop offset="1" stop-color="#E2E8F0" />
    </linearGradient>
  </defs>
  <rect x="6" y="6" width="52" height="52" rx="18" fill="url(#bg)" />
  <path
    d="M20 18h9.5c9.3 0 15 5.2 15 14s-5.7 14-15 14H20V18Zm9.1 20.4c4.5 0 7.2-2.2 7.2-6.4s-2.7-6.4-7.2-6.4h-.8v12.8h.8Z"
    fill="url(#cut)"
  />
  <path
    d="M41 18h8v28h-8V34.8h-8.5V46h-8V18h8v10.1H41V18Z"
    fill="#0F172A"
    fill-opacity=".14"
  />
  <path
    d="M39.5 18h7.5v28h-7.5V34.8H31V46h-7.5V18H31v10.1h8.5V18Z"
    fill="#F8FAFC"
  />
</svg>
